<mxfile host="Electron" modified="2024-03-19T03:34:00.919Z" agent="Mozilla/5.0 (Windows NT 10.0; Win64; x64) AppleWebKit/537.36 (KHTML, like Gecko) draw.io/22.0.2 Chrome/114.0.5735.289 Electron/25.8.4 Safari/537.36" etag="YJKPjxGqcUsx-VtXGAoo" version="22.0.2" type="device">
  <diagram name="Page-1" id="c_6zZTRgpUd4id7tKWbu">
    <mxGraphModel dx="1049" dy="1477" grid="1" gridSize="10" guides="1" tooltips="1" connect="1" arrows="1" fold="1" page="1" pageScale="1" pageWidth="1169" pageHeight="827" math="0" shadow="0">
      <root>
        <mxCell id="0" />
        <mxCell id="1" parent="0" />
        <mxCell id="fqIZrqgZsRLWEZe6-qU1-1" value="" style="rounded=0;whiteSpace=wrap;html=1;" vertex="1" parent="1">
          <mxGeometry x="80" y="110" width="140" height="90" as="geometry" />
        </mxCell>
        <mxCell id="fqIZrqgZsRLWEZe6-qU1-13" style="edgeStyle=orthogonalEdgeStyle;rounded=0;orthogonalLoop=1;jettySize=auto;html=1;exitX=1;exitY=0.5;exitDx=0;exitDy=0;entryX=0;entryY=0.5;entryDx=0;entryDy=0;" edge="1" parent="1" source="fqIZrqgZsRLWEZe6-qU1-2" target="fqIZrqgZsRLWEZe6-qU1-4">
          <mxGeometry relative="1" as="geometry" />
        </mxCell>
        <mxCell id="fqIZrqgZsRLWEZe6-qU1-2" value="&lt;h1 style=&quot;line-height: 90%;&quot;&gt;Step 1&lt;/h1&gt;&lt;p&gt;Hardware Setup &amp;amp; ECG Signal Acquisition.&lt;/p&gt;" style="text;html=1;strokeColor=#b85450;fillColor=#f8cecc;spacing=5;spacingTop=-20;whiteSpace=wrap;overflow=hidden;rounded=0;" vertex="1" parent="1">
          <mxGeometry x="80" y="110" width="140" height="90" as="geometry" />
        </mxCell>
        <mxCell id="fqIZrqgZsRLWEZe6-qU1-3" value="" style="rounded=0;whiteSpace=wrap;html=1;" vertex="1" parent="1">
          <mxGeometry x="250" y="110" width="140" height="90" as="geometry" />
        </mxCell>
        <mxCell id="fqIZrqgZsRLWEZe6-qU1-14" style="edgeStyle=orthogonalEdgeStyle;rounded=0;orthogonalLoop=1;jettySize=auto;html=1;exitX=1;exitY=0.5;exitDx=0;exitDy=0;" edge="1" parent="1" source="fqIZrqgZsRLWEZe6-qU1-4" target="fqIZrqgZsRLWEZe6-qU1-6">
          <mxGeometry relative="1" as="geometry" />
        </mxCell>
        <mxCell id="fqIZrqgZsRLWEZe6-qU1-4" value="&lt;h1 style=&quot;line-height: 90%;&quot;&gt;Step 2&lt;/h1&gt;&lt;p&gt;Data Collection.&lt;/p&gt;" style="text;html=1;strokeColor=#d79b00;fillColor=#ffe6cc;spacing=5;spacingTop=-20;whiteSpace=wrap;overflow=hidden;rounded=0;" vertex="1" parent="1">
          <mxGeometry x="250" y="110" width="140" height="90" as="geometry" />
        </mxCell>
        <mxCell id="fqIZrqgZsRLWEZe6-qU1-5" value="" style="rounded=0;whiteSpace=wrap;html=1;" vertex="1" parent="1">
          <mxGeometry x="420" y="110" width="140" height="90" as="geometry" />
        </mxCell>
        <mxCell id="fqIZrqgZsRLWEZe6-qU1-18" value="" style="edgeStyle=orthogonalEdgeStyle;rounded=0;orthogonalLoop=1;jettySize=auto;html=1;" edge="1" parent="1" source="fqIZrqgZsRLWEZe6-qU1-6" target="fqIZrqgZsRLWEZe6-qU1-8">
          <mxGeometry relative="1" as="geometry" />
        </mxCell>
        <mxCell id="fqIZrqgZsRLWEZe6-qU1-6" value="&lt;h1 style=&quot;line-height: 90%;&quot;&gt;Step 3&lt;/h1&gt;&lt;p&gt;Data Preprocessing and normalization.&lt;/p&gt;" style="text;html=1;strokeColor=#d6b656;fillColor=#fff2cc;spacing=5;spacingTop=-20;whiteSpace=wrap;overflow=hidden;rounded=0;" vertex="1" parent="1">
          <mxGeometry x="420" y="110" width="140" height="90" as="geometry" />
        </mxCell>
        <mxCell id="fqIZrqgZsRLWEZe6-qU1-7" value="" style="rounded=0;whiteSpace=wrap;html=1;" vertex="1" parent="1">
          <mxGeometry x="590" y="110" width="140" height="90" as="geometry" />
        </mxCell>
        <mxCell id="fqIZrqgZsRLWEZe6-qU1-19" value="" style="edgeStyle=orthogonalEdgeStyle;rounded=0;orthogonalLoop=1;jettySize=auto;html=1;" edge="1" parent="1" source="fqIZrqgZsRLWEZe6-qU1-8" target="fqIZrqgZsRLWEZe6-qU1-10">
          <mxGeometry relative="1" as="geometry" />
        </mxCell>
        <mxCell id="fqIZrqgZsRLWEZe6-qU1-8" value="&lt;h1 style=&quot;line-height: 90%;&quot;&gt;Step 4&lt;/h1&gt;&lt;p&gt;AI model training and validation.&lt;/p&gt;" style="text;html=1;strokeColor=#82b366;fillColor=#d5e8d4;spacing=5;spacingTop=-20;whiteSpace=wrap;overflow=hidden;rounded=0;" vertex="1" parent="1">
          <mxGeometry x="590" y="110" width="140" height="90" as="geometry" />
        </mxCell>
        <mxCell id="fqIZrqgZsRLWEZe6-qU1-9" value="" style="rounded=0;whiteSpace=wrap;html=1;" vertex="1" parent="1">
          <mxGeometry x="760" y="110" width="140" height="90" as="geometry" />
        </mxCell>
        <mxCell id="fqIZrqgZsRLWEZe6-qU1-20" value="" style="edgeStyle=orthogonalEdgeStyle;rounded=0;orthogonalLoop=1;jettySize=auto;html=1;" edge="1" parent="1" source="fqIZrqgZsRLWEZe6-qU1-10" target="fqIZrqgZsRLWEZe6-qU1-12">
          <mxGeometry relative="1" as="geometry" />
        </mxCell>
        <mxCell id="fqIZrqgZsRLWEZe6-qU1-10" value="&lt;h1 style=&quot;line-height: 90%;&quot;&gt;Step 5&lt;/h1&gt;&lt;p&gt;AI model converted to TensorFlow Lite.&lt;/p&gt;" style="text;html=1;strokeColor=#6c8ebf;fillColor=#dae8fc;spacing=5;spacingTop=-20;whiteSpace=wrap;overflow=hidden;rounded=0;" vertex="1" parent="1">
          <mxGeometry x="760" y="110" width="140" height="90" as="geometry" />
        </mxCell>
        <mxCell id="fqIZrqgZsRLWEZe6-qU1-11" value="" style="rounded=0;whiteSpace=wrap;html=1;" vertex="1" parent="1">
          <mxGeometry x="930" y="110" width="140" height="90" as="geometry" />
        </mxCell>
        <mxCell id="fqIZrqgZsRLWEZe6-qU1-12" value="&lt;h1 style=&quot;line-height: 90%;&quot;&gt;Step 6&lt;/h1&gt;&lt;p&gt;AI model integrated into hardware to perform real time inference.&lt;/p&gt;" style="text;html=1;strokeColor=#9673a6;fillColor=#e1d5e7;spacing=5;spacingTop=-20;whiteSpace=wrap;overflow=hidden;rounded=0;" vertex="1" parent="1">
          <mxGeometry x="930" y="110" width="140" height="90" as="geometry" />
        </mxCell>
      </root>
    </mxGraphModel>
  </diagram>
</mxfile>
